#!OML:ASF F:\VICON\USERDATA\INSTALL\rory3\rory3.ASF
:FULLY-SPECIFIED
:DEGREES
73
root -0.16752535973217597 17.74396581539445 34.22928656394922 -0.48900259360629206 -6.7787016504700865 -8.455709085415503
lfemur -28.421699457307973 -6.367761129796143 -7.180226386265517
ltibia 26.475243420931438
lfoot -5.522623677278814 -5.272135272698804
ltoes -3.7145659386928385
rfemur 5.614894491809334 5.220798677250141 33.25539896356973
rtibia 37.082713922683745
rfoot -6.763654786726652 -3.369364281030492
rtoes 3.0830622830680436
lowerback 9.314913880087278 1.656737935662172 5.472007764909582
upperback 0.1448932786877658 3.0395955726355552 1.7517118738608533
thorax -5.045745367027965 1.29635887052597 -1.5961263266505454
lowerneck -16.371446377536387 -2.909078505639022 -2.1578325602611783
upperneck 20.742938324362914 -3.5573318397113884 1.3093451018601039
head 9.177857970912877 -1.7319170144127167 0.4215262871290565
lclavicle -4.532846847731428e-16 -7.764205462717846e-16
lhumerus -37.82823971193265 9.397557241686618 79.94641783140337
lradius 20.262490737730115
lwrist 2.4513594625066224
lhand -27.815823491061067 21.607156649077073
lfingers 7.12502
lthumb -0.7621144214573112 53.28808021004487
rclavicle -4.541517426963269e-16 -7.770906946234766e-16
rhumerus -19.511864769211876 -7.570146777041579 -83.1037911404317
rradius 27.437821519405404
rwrist 2.739570205825239
rhand -18.28286750141003 22.5685208188107
rfingers 7.12502
rthumb 8.012110268153718 -7.279580093041449
74
root -0.11855776590731093 17.699007674823473 34.87100094386384 -0.3995726637171839 -7.1249047589723205 -8.261064144133902
lfemur -27.122236972279396 -8.754770401786473 -7.027385021343697
ltibia 23.670715911078315
lfoot -5.57730555736762 -5.747541409014458
ltoes -4.021019213165992
rfemur 6.569654152704604 5.065358001290605 32.49582032659114
rtibia 38.39552368809785
rfoot -5.955882652573203 -2.841480713369917
rtoes 3.184731965915922
lowerback 9.271093760057195 1.7728660863789676 5.517803483403315
upperback 0.11285740022683412 3.0610344178116753 1.6818348285881084
thorax -5.006446540761408 1.3824371588830808 -1.5949787484112814
lowerneck -16.385955523519105 -2.90606683371608 -2.151681957297734
upperneck 20.658256190318163 -3.5796577397781264 1.3745263341919012
head 9.160604166576201 -1.7352279627628135 0.4151367420670381
lclavicle -4.532846847733864e-16 -7.764205462719728e-16
lhumerus -38.308952531264694 10.518516412452078 79.34044356127006
lradius 20.512213886397795
lwrist 2.1246659212832233
lhand -27.580917931217954 22.28921111979031
lfingers 7.12502
lthumb -0.685961647135847 53.54722867800225
rclavicle -4.541517426962813e-16 -7.770906946234413e-16
rhumerus -18.782878642939586 -7.718134341892521 -83.05523653656132
rradius 27.69963479998497
rwrist 2.9509407097529863
rhand -18.32509385894638 22.492785839530246
rfingers 7.12502
rthumb 8.029576283961179 -7.231667056969403
75
root -0.06437842402285165 17.66507550691369 35.465776922885155 -0.7650091786930155 -7.171046684143885 -7.794687768029447
lfemur -26.658481075303285 -5.623131167658305 -8.9533210330768
ltibia 24.436017553799434
lfoot -5.025325706021237 -4.999208802537258
ltoes -3.9459898965461466
rfemur 7.032872807104525 4.884487485640996 31.5840037269568
rtibia 40.4312403272862
rfoot -4.495306750444314 -2.46080703787568
rtoes 2.9817823699883603
lowerback 9.275449429501364 1.862829319882043 5.444299787106255
upperback 0.09312556196824684 3.050152336204474 1.600502689422599
thorax -5.003871338641285 1.4070421953249297 -1.6135672215056804
lowerneck -16.38759779991916 -2.9053344782758193 -2.143716971836233
upperneck 20.59766907416742 -3.612041285644015 1.4140469321453817
head 9.147137852912003 -1.7463042741096353 0.4023163203119093
lclavicle -4.532846847733734e-16 -7.764205462719627e-16
lhumerus -38.75427280515952 11.503086528715226 78.72153329660814
lradius 20.89386780599175
lwrist 2.259961476923316
lhand -27.78710553876083 21.69711838710833
lfingers 7.12502
lthumb -0.8193028509682222 53.11362864037497
rclavicle -4.541517426961594e-16 -7.770906946233471e-16
rhumerus -18.71142283887022 -8.355504936526515 -82.99418790249976
rradius 27.837456577991595
rwrist 3.0328035805844493
rhand -18.341514427438206 22.438480143924544
rfingers 7.12502
rthumb 8.02386346750775 -7.229106973701617
76
root 0.00024275408207108384 17.652759422752847 36.26260599882806 -1.4838878526851338 -6.950193567874708 -7.0401510055758845
lfemur -27.828773166373594 -3.505052293597057 -11.263132164630061
ltibia 27.027442353099218
lfoot -4.885240398927007 -4.845387177218575
ltoes -3.527000344109592
rfemur 5.636421453005937 4.184184843924311 29.937807267163144
rtibia 42.863130823871316
rfoot -3.1218007833033576 -2.4632209941293857
rtoes 3.4931246839280123
lowerback 9.306675745667434 1.9027260523691085 5.173958563946017
upperback 0.09554747587092308 3.068726433838208 1.5210605576280938
thorax -4.991295709515821 1.4440259877421515 -1.4577298333368718
lowerneck -16.387303096197677 -2.908928166801844 -2.1348135498560836
upperneck 20.585244707274917 -3.6222892851220223 1.4794148400744487
head 9.13539569696045 -1.7606353007574302 0.3927502232733976
lclavicle -4.532846847734693e-16 -7.764205462720368e-16
lhumerus -39.008395025697894 12.480061783417675 78.1789376334768
lradius 21.370768291915013
lwrist 2.4634578222618457
lhand -27.622497149816898 22.19306033879306
lfingers 7.12502
lthumb -0.6513467287163768 53.57448446636479
rclavicle -4.541517426961331e-16 -7.7709069462332685e-16
rhumerus -19.33410841866918 -9.410735868075149 -82.84522934229769
rradius 27.879467730155387
rwrist 3.027710690685281
rhand -18.31187826676876 22.478907722240535
rfingers 7.12502
rthumb 8.029265042451929 -7.226055250949447
